<svg width="60" height="60" viewBox="0 0 60 60" fill="none" xmlns="http://www.w3.org/2000/svg">
<path d="M47.5 7V19.8169" stroke="#808080" stroke-linecap="round" stroke-linejoin="round"/>
<path d="M41 13.4085H54" stroke="#808080" stroke-linecap="round" stroke-linejoin="round"/>
<path d="M52.5556 1H7.44444C3.88528 1 1 3.88528 1 7.44444V52.5556C1 56.1147 3.88528 59 7.44444 59H52.5556C56.1147 59 59 56.1147 59 52.5556V7.44444C59 3.88528 56.1147 1 52.5556 1Z" stroke="#808080" stroke-width="2" stroke-linecap="round" stroke-linejoin="round" stroke-dasharray="4 4"/>
<path d="M47 50.2471C47 51.1504 46.636 52.0167 45.9882 52.6554C45.3403 53.2942 44.4617 53.653 43.5455 53.653H12.4545C11.5383 53.653 10.6597 53.2942 10.0118 52.6554C9.36396 52.0167 9 51.1504 9 50.2471V31.5147C9 30.6114 9.36396 29.7451 10.0118 29.1064C10.6597 28.4677 11.5383 28.1088 12.4545 28.1088H19.3636L22.8182 23H33.1818L36.6364 28.1088H43.5455C44.4617 28.1088 45.3403 28.4677 45.9882 29.1064C46.636 29.7451 47 30.6114 47 31.5147V50.2471Z" stroke="#808080" stroke-linecap="round" stroke-linejoin="round"/>
<path d="M27.9999 46.8413C31.8157 46.8413 34.909 43.7915 34.909 40.0295C34.909 36.2675 31.8157 33.2177 27.9999 33.2177C24.1841 33.2177 21.0908 36.2675 21.0908 40.0295C21.0908 43.7915 24.1841 46.8413 27.9999 46.8413Z" stroke="#808080" stroke-linecap="round" stroke-linejoin="round"/>
</svg>
