<svg width="29" height="29" viewBox="0 0 29 29" fill="none" xmlns="http://www.w3.org/2000/svg">
<path d="M22.9634 13.2946H8.62936L13.0166 8.02508C13.2217 7.77826 13.3204 7.46006 13.291 7.14048C13.2615 6.82089 13.1063 6.5261 12.8595 6.32095C12.6127 6.1158 12.2945 6.01711 11.9749 6.04657C11.6553 6.07604 11.3605 6.23125 11.1553 6.47807L5.11233 13.7297C5.07167 13.7874 5.03532 13.848 5.00355 13.911C5.00355 13.9714 5.00356 14.0077 4.91895 14.0681C4.86417 14.2067 4.83549 14.3542 4.83435 14.5032C4.83549 14.6522 4.86417 14.7997 4.91895 14.9383C4.91895 14.9987 4.91895 15.035 5.00355 15.0954C5.03532 15.1584 5.07167 15.219 5.11233 15.2767L11.1553 22.5283C11.269 22.6647 11.4113 22.7745 11.5721 22.8497C11.733 22.9249 11.9084 22.9637 12.086 22.9634C12.3684 22.964 12.642 22.8656 12.8595 22.6854C12.9819 22.584 13.083 22.4594 13.1572 22.3187C13.2313 22.1781 13.277 22.0243 13.2916 21.866C13.3062 21.7077 13.2894 21.548 13.2422 21.3962C13.195 21.2444 13.1184 21.1034 13.0166 20.9813L8.62936 15.7118H22.9634C23.2839 15.7118 23.5913 15.5845 23.818 15.3578C24.0447 15.1311 24.172 14.8237 24.172 14.5032C24.172 14.1826 24.0447 13.8752 23.818 13.6486C23.5913 13.4219 23.2839 13.2946 22.9634 13.2946Z" fill="#231F20"/>
</svg>
