<svg width="22" height="20" viewBox="0 0 22 20" fill="none" xmlns="http://www.w3.org/2000/svg">
<path d="M10 4V0H12V4H10ZM16.65 6.75L15.25 5.35L18.075 2.5L19.475 3.925L16.65 6.75ZM18 12V10H22V12H18ZM18.075 19.475L15.25 16.65L16.65 15.25L19.5 18.05L18.075 19.475ZM5.35 6.75L2.525 3.925L3.95 2.5L6.75 5.35L5.35 6.75ZM5 18H9.5C9.91667 18 10.2708 17.8542 10.5625 17.5625C10.8542 17.2708 11 16.9167 11 16.5C11 16.0833 10.8583 15.7292 10.575 15.4375C10.2917 15.1458 9.94167 15 9.525 15H8.25L7.75 13.8C7.51667 13.25 7.15 12.8125 6.65 12.4875C6.15 12.1625 5.6 12 5 12C4.16667 12 3.45833 12.2917 2.875 12.875C2.29167 13.4583 2 14.1667 2 15C2 15.8333 2.29167 16.5417 2.875 17.125C3.45833 17.7083 4.16667 18 5 18ZM5 20C3.61667 20 2.4375 19.5125 1.4625 18.5375C0.4875 17.5625 0 16.3833 0 15C0 13.6167 0.4875 12.4375 1.4625 11.4625C2.4375 10.4875 3.61667 10 5 10C6 10 6.9125 10.2708 7.7375 10.8125C8.5625 11.3542 9.175 12.0833 9.575 13C10.5417 13 11.3542 13.3583 12.0125 14.075C12.6708 14.7917 13 15.65 13 16.65C12.9667 17.6 12.6125 18.3958 11.9375 19.0375C11.2625 19.6792 10.45 20 9.5 20H5ZM13 16.65C12.9167 16.3167 12.8333 15.9917 12.75 15.675C12.6667 15.3583 12.5833 15.0333 12.5 14.7C13.25 14.3833 13.8542 13.8917 14.3125 13.225C14.7708 12.5583 15 11.8167 15 11C15 9.9 14.6083 8.95833 13.825 8.175C13.0417 7.39167 12.1 7 11 7C10 7 9.125 7.325 8.375 7.975C7.625 8.625 7.18333 9.45 7.05 10.45C6.71667 10.3667 6.375 10.2917 6.025 10.225C5.675 10.1583 5.33333 10.0833 5 10C5.23333 8.53333 5.92083 7.33333 7.0625 6.4C8.20417 5.46667 9.51667 5 11 5C12.6667 5 14.0833 5.58333 15.25 6.75C16.4167 7.91667 17 9.33333 17 11C17 12.2833 16.6333 13.4375 15.9 14.4625C15.1667 15.4875 14.2 16.2167 13 16.65Z" fill="black"/>
</svg>
