<svg width="60" height="60" viewBox="0 0 60 60" fill="none" xmlns="http://www.w3.org/2000/svg">
<path d="M52.5556 1H7.44444C3.88528 1 1 3.88528 1 7.44444V52.5556C1 56.1147 3.88528 59 7.44444 59H52.5556C56.1147 59 59 56.1147 59 52.5556V7.44444C59 3.88528 56.1147 1 52.5556 1Z" stroke="#808080" stroke-width="2" stroke-linecap="round" stroke-linejoin="round"/>
<path d="M18.7221 23.5555C21.3915 23.5555 23.5555 21.3915 23.5555 18.7222C23.5555 16.0528 21.3915 13.8888 18.7221 13.8888C16.0528 13.8888 13.8888 16.0528 13.8888 18.7222C13.8888 21.3915 16.0528 23.5555 18.7221 23.5555Z" stroke="#808080" stroke-width="2" stroke-linecap="round" stroke-linejoin="round"/>
<path d="M59 39.6666L42.8889 23.5555L7.44446 59" stroke="#808080" stroke-width="2" stroke-linecap="round" stroke-linejoin="round"/>
</svg>
