<svg width="23" height="15" viewBox="0 0 23 15" fill="none" xmlns="http://www.w3.org/2000/svg">
<path d="M3.96852 6.91852C3.71852 7.05185 3.46435 7.07269 3.20602 6.98102C2.94769 6.88935 2.75185 6.71852 2.61852 6.46852L0.118519 1.46852C-0.0148148 1.21852 -0.0356481 0.964352 0.0560185 0.706019C0.147685 0.447685 0.318519 0.251852 0.568519 0.118519C0.818519 -0.0148148 1.07269 -0.0356481 1.33102 0.0560185C1.58935 0.147685 1.78519 0.318519 1.91852 0.568519L4.41852 5.56852C4.55185 5.81852 4.57269 6.07269 4.48102 6.33102C4.38935 6.58935 4.21852 6.78519 3.96852 6.91852ZM7.46852 13.9185C7.21852 14.0519 6.96435 14.0727 6.70602 13.981C6.44769 13.8894 6.25185 13.7185 6.11852 13.4685L4.11852 9.46852C3.98519 9.21852 3.96435 8.96435 4.05602 8.70602C4.14769 8.44769 4.31852 8.25185 4.56852 8.11852C4.81852 7.98519 5.07269 7.96435 5.33102 8.05602C5.58935 8.14769 5.78519 8.31852 5.91852 8.56852L7.91852 12.5685C8.05185 12.8185 8.07269 13.0727 7.98102 13.331C7.88935 13.5894 7.71852 13.7852 7.46852 13.9185ZM9.51852 8.91852C9.26852 9.05185 9.01435 9.07269 8.75602 8.98102C8.49769 8.88935 8.30185 8.71852 8.16852 8.46852L4.66852 1.46852C4.53519 1.21852 4.51435 0.964352 4.60602 0.706019C4.69769 0.447685 4.86852 0.251852 5.11852 0.118519C5.36852 -0.0148148 5.62269 -0.0356481 5.88102 0.0560185C6.13935 0.147685 6.33519 0.318519 6.46852 0.568519L9.96852 7.56852C10.1019 7.81852 10.1227 8.07269 10.031 8.33102C9.93935 8.58935 9.76852 8.78519 9.51852 8.91852ZM11.6685 3.91852C11.4185 4.05185 11.1644 4.07269 10.906 3.98102C10.6477 3.88935 10.4519 3.71852 10.3185 3.46852L9.34352 1.46852C9.21019 1.21852 9.18935 0.964352 9.28102 0.706019C9.37269 0.447685 9.54352 0.251852 9.79352 0.118519C10.0435 -0.0148148 10.2935 -0.0356481 10.5435 0.0560185C10.7935 0.147685 10.9852 0.318519 11.1185 0.568519L12.1185 2.56852C12.2519 2.81852 12.2727 3.07269 12.181 3.33102C12.0894 3.58935 11.9185 3.78519 11.6685 3.91852ZM12.2685 13.8935C12.0185 14.0269 11.7644 14.0519 11.506 13.9685C11.2477 13.8852 11.0519 13.7185 10.9185 13.4685L9.91852 11.4685C9.78519 11.2185 9.76435 10.9644 9.85602 10.706C9.94769 10.4477 10.1185 10.2519 10.3685 10.1185C10.6185 9.98519 10.8727 9.96435 11.131 10.056C11.3894 10.1477 11.5852 10.3185 11.7185 10.5685L12.7185 12.5685C12.8519 12.8185 12.8727 13.0685 12.781 13.3185C12.6894 13.5685 12.5185 13.7602 12.2685 13.8935ZM16.9185 13.8935C16.6685 14.0269 16.4144 14.0519 16.156 13.9685C15.8977 13.8852 15.7019 13.7185 15.5685 13.4685L12.0685 6.46852C11.9352 6.21852 11.9144 5.96435 12.006 5.70602C12.0977 5.44769 12.2685 5.25185 12.5185 5.11852C12.7685 4.98519 13.0227 4.96435 13.281 5.05602C13.5394 5.14769 13.7352 5.31852 13.8685 5.56852L17.3685 12.5685C17.5019 12.8185 17.5227 13.0685 17.431 13.3185C17.3394 13.5685 17.1685 13.7602 16.9185 13.8935ZM18.4685 7.91852C18.2185 8.05185 17.9644 8.07269 17.706 7.98102C17.4477 7.88935 17.2519 7.71852 17.1185 7.46852L14.1185 1.46852C13.9852 1.21852 13.9644 0.964352 14.056 0.706019C14.1477 0.447685 14.3185 0.251852 14.5685 0.118519C14.8185 -0.0148148 15.0727 -0.0356481 15.331 0.0560185C15.5894 0.147685 15.7852 0.318519 15.9185 0.568519L18.9185 6.56852C19.0519 6.81852 19.0727 7.07269 18.981 7.33102C18.8894 7.58935 18.7185 7.78519 18.4685 7.91852ZM21.4685 13.9185C21.2185 14.0519 20.9644 14.0727 20.706 13.981C20.4477 13.8894 20.2519 13.7185 20.1185 13.4685L18.6185 10.4685C18.4852 10.2185 18.4644 9.96435 18.556 9.70602C18.6477 9.44769 18.8185 9.25185 19.0685 9.11852C19.3185 8.98519 19.5727 8.96435 19.831 9.05602C20.0894 9.14769 20.2852 9.31852 20.4185 9.56852L21.9185 12.5685C22.0519 12.8185 22.0727 13.0727 21.981 13.331C21.8894 13.5894 21.7185 13.7852 21.4685 13.9185Z" fill="black"/>
</svg>
