<svg width="20" height="18" viewBox="0 0 20 18" fill="none" xmlns="http://www.w3.org/2000/svg">
<path d="M9.89096 16.2C9.95154 16.2 10.0121 16.185 10.0727 16.155C10.1333 16.125 10.1787 16.095 10.209 16.065L17.6602 8.685C17.8419 8.505 17.9744 8.3025 18.0577 8.0775C18.141 7.8525 18.1826 7.6275 18.1826 7.4025C18.1826 7.1625 18.141 6.93375 18.0577 6.71625C17.9744 6.49875 17.8419 6.3075 17.6602 6.1425L13.7983 2.3175C13.6317 2.1375 13.4386 2.00625 13.219 1.92375C12.9994 1.84125 12.7684 1.8 12.5261 1.8C12.299 1.8 12.0718 1.84125 11.8446 1.92375C11.6174 2.00625 11.413 2.1375 11.2313 2.3175L10.9814 2.565L12.6624 4.2525C12.8896 4.4625 13.0562 4.7025 13.1622 4.9725C13.2682 5.2425 13.3212 5.5275 13.3212 5.8275C13.3212 6.4575 13.1054 6.98625 12.6738 7.41375C12.2422 7.84125 11.7083 8.055 11.0722 8.055C10.7693 8.055 10.4778 8.0025 10.1976 7.8975C9.91746 7.7925 9.67136 7.635 9.45934 7.425L7.75557 5.76L3.7801 9.6975C3.73467 9.7425 3.70059 9.79125 3.67787 9.84375C3.65516 9.89625 3.6438 9.9525 3.6438 10.0125C3.6438 10.1325 3.68923 10.2413 3.7801 10.3388C3.87097 10.4363 3.97698 10.485 4.09814 10.485C4.15872 10.485 4.21929 10.47 4.27987 10.44C4.34045 10.41 4.38589 10.38 4.41617 10.35L7.50568 7.29L8.77783 8.55L5.71104 11.61C5.66561 11.655 5.63153 11.7038 5.60881 11.7563C5.5861 11.8088 5.57474 11.865 5.57474 11.925C5.57474 12.045 5.62017 12.15 5.71104 12.24C5.80191 12.33 5.90792 12.375 6.02908 12.375C6.08966 12.375 6.15023 12.36 6.21081 12.33C6.27139 12.3 6.31683 12.27 6.34712 12.24L9.43662 9.2025L10.7088 10.4625L7.64198 13.5225C7.59655 13.5525 7.56247 13.5975 7.53975 13.6575C7.51704 13.7175 7.50568 13.7775 7.50568 13.8375C7.50568 13.9575 7.55111 14.0625 7.64198 14.1525C7.73285 14.2425 7.83886 14.2875 7.96002 14.2875C8.0206 14.2875 8.07739 14.2763 8.13039 14.2538C8.1834 14.2313 8.23262 14.1975 8.27806 14.1525L11.3676 11.115L12.6397 12.375L9.5502 15.435C9.50477 15.48 9.4707 15.5288 9.44798 15.5813C9.42526 15.6338 9.4139 15.69 9.4139 15.75C9.4139 15.87 9.46312 15.975 9.56156 16.065C9.66 16.155 9.7698 16.2 9.89096 16.2ZM9.86824 18C9.30789 18 8.8119 17.8162 8.38028 17.4488C7.94866 17.0813 7.69499 16.62 7.61926 16.065C7.10435 15.99 6.67272 15.78 6.3244 15.435C5.97607 15.09 5.76405 14.6625 5.68832 14.1525C5.17341 14.0775 4.74557 13.8638 4.40482 13.5113C4.06406 13.1588 3.85582 12.735 3.7801 12.24C3.2046 12.165 2.73512 11.9175 2.37165 11.4975C2.00818 11.0775 1.82644 10.5825 1.82644 10.0125C1.82644 9.7125 1.88323 9.42375 1.99682 9.14625C2.1104 8.86875 2.27321 8.625 2.48523 8.415L7.75557 3.2175L10.7315 6.165C10.7618 6.21 10.8072 6.24375 10.8678 6.26625C10.9284 6.28875 10.9889 6.3 11.0495 6.3C11.1858 6.3 11.2994 6.25875 11.3903 6.17625C11.4811 6.09375 11.5266 5.985 11.5266 5.85C11.5266 5.79 11.5152 5.73 11.4925 5.67C11.4698 5.61 11.4357 5.565 11.3903 5.535L8.14175 2.3175C7.97516 2.1375 7.78207 2.00625 7.56247 1.92375C7.34287 1.84125 7.11192 1.8 6.8696 1.8C6.64244 1.8 6.41527 1.84125 6.1881 1.92375C5.96093 2.00625 5.75647 2.1375 5.57474 2.3175L2.37165 5.5125C2.23535 5.6475 2.12176 5.805 2.03089 5.985C1.94003 6.165 1.87945 6.345 1.84916 6.525C1.81887 6.705 1.81887 6.88875 1.84916 7.07625C1.87945 7.26375 1.94003 7.44 2.03089 7.605L0.713312 8.91C0.455853 8.565 0.266546 8.18625 0.145388 7.77375C0.0242314 7.36125 -0.0212025 6.945 0.00908678 6.525C0.039376 6.105 0.145388 5.69625 0.327124 5.29875C0.50886 4.90125 0.758746 4.545 1.07678 4.23L4.27987 1.0575C4.64334 0.7125 5.04846 0.45 5.49523 0.27C5.942 0.09 6.40012 0 6.8696 0C7.33909 0 7.79721 0.09 8.24398 0.27C8.69075 0.45 9.08829 0.7125 9.43662 1.0575L9.68651 1.305L9.93639 1.0575C10.2999 0.7125 10.705 0.45 11.1517 0.27C11.5985 0.09 12.0566 0 12.5261 0C12.9956 0 13.4537 0.09 13.9005 0.27C14.3473 0.45 14.7448 0.7125 15.0931 1.0575L18.9323 4.86C19.2806 5.205 19.5457 5.6025 19.7274 6.0525C19.9091 6.5025 20 6.96 20 7.425C20 7.89 19.9091 8.34375 19.7274 8.78625C19.5457 9.22875 19.2806 9.6225 18.9323 9.9675L11.4811 17.325C11.2691 17.535 11.023 17.7 10.7428 17.82C10.4627 17.94 10.1711 18 9.86824 18Z" fill="#808080"/>
</svg>
