<svg width="17" height="24" viewBox="0 0 17 24" fill="none" xmlns="http://www.w3.org/2000/svg">
<path d="M14.075 24L10.4683 6.64186C10.351 6.10233 10.0871 5.69767 9.67658 5.42791C9.26606 5.15814 8.83599 5.02326 8.38637 5.02326C7.93675 5.02326 7.52135 5.11628 7.14015 5.30233C6.75895 5.48837 6.45106 5.76744 6.21647 6.13953L5.04355 7.92558C4.69168 8.46512 4.23717 8.95349 3.68003 9.3907C3.1229 9.82791 2.48268 10.1488 1.75938 10.3535V8.37209L0 8.37209V24H1.75938L1.75938 12.6698C2.69771 12.4651 3.56763 12.1395 4.36912 11.693C5.17062 11.2465 5.8646 10.6977 6.45106 10.0465L7.15481 13.3953L4.69168 15.6279L4.69168 24H7.03752V17.3023L9.50065 15.0698L11.6119 24H14.075ZM13.5765 12.9767L16.069 12.5302C16.3818 12.4744 16.6261 12.3209 16.8021 12.0698C16.978 11.8186 17.0367 11.5349 16.978 11.2186L16.0983 6.83721C15.981 6.24186 15.6487 5.77209 15.1013 5.42791C14.554 5.08372 13.9675 4.96744 13.342 5.07907L11.9931 5.33023L13.5765 12.9767ZM6.45106 4.46512C7.09616 4.46512 7.64841 4.24651 8.10781 3.8093C8.5672 3.37209 8.7969 2.84651 8.7969 2.23256C8.7969 1.6186 8.5672 1.09302 8.10781 0.655814C7.64841 0.218605 7.09616 0 6.45106 0C5.80595 0 5.2537 0.218605 4.79431 0.655814C4.33491 1.09302 4.10522 1.6186 4.10522 2.23256C4.10522 2.84651 4.33491 3.37209 4.79431 3.8093C5.2537 4.24651 5.80595 4.46512 6.45106 4.46512Z" fill="#A5EEE7"/>
</svg>
