<svg width="12" height="18" viewBox="0 0 12 18" fill="none" xmlns="http://www.w3.org/2000/svg">
<path d="M6 18C4.23333 18 2.79167 17.7488 1.675 17.2463C0.558333 16.7438 0 16.095 0 15.3C0 14.775 0.241667 14.3175 0.725 13.9275C1.20833 13.5375 1.875 13.23 2.725 13.005L3.3 14.715C3.01667 14.79 2.75833 14.8838 2.525 14.9963C2.29167 15.1088 2.13333 15.21 2.05 15.3C2.26667 15.54 2.76667 15.75 3.55 15.93C4.33333 16.11 5.15 16.2 6 16.2C6.85 16.2 7.67083 16.11 8.4625 15.93C9.25417 15.75 9.75833 15.54 9.975 15.3C9.89167 15.21 9.73333 15.1088 9.5 14.9963C9.26667 14.8838 9.00833 14.79 8.725 14.715L9.3 13.005C10.15 13.23 10.8125 13.5375 11.2875 13.9275C11.7625 14.3175 12 14.775 12 15.3C12 16.095 11.4417 16.7438 10.325 17.2463C9.20833 17.7488 7.76667 18 6 18ZM6 11.9925C6.3 11.4975 6.61667 11.0438 6.95 10.6313C7.28333 10.2188 7.60833 9.825 7.925 9.45C8.54167 8.73 9.03333 8.08125 9.4 7.50375C9.76667 6.92625 9.95 6.21 9.95 5.355C9.95 4.365 9.56667 3.525 8.8 2.835C8.03333 2.145 7.1 1.8 6 1.8C4.9 1.8 3.96667 2.145 3.2 2.835C2.43333 3.525 2.05 4.365 2.05 5.355C2.05 6.21 2.23333 6.92625 2.6 7.50375C2.96667 8.08125 3.45833 8.73 4.075 9.45C4.39167 9.825 4.71667 10.2188 5.05 10.6313C5.38333 11.0438 5.7 11.4975 6 11.9925ZM6 15.3C5.81667 15.3 5.65 15.2513 5.5 15.1538C5.35 15.0563 5.24167 14.925 5.175 14.76C4.79167 13.695 4.30833 12.8025 3.725 12.0825C3.14167 11.3625 2.575 10.6725 2.025 10.0125C1.49167 9.3525 1.02917 8.67 0.6375 7.965C0.245833 7.26 0.05 6.39 0.05 5.355C0.05 3.855 0.625 2.5875 1.775 1.5525C2.925 0.5175 4.33333 0 6 0C7.66667 0 9.075 0.5175 10.225 1.5525C11.375 2.5875 11.95 3.855 11.95 5.355C11.95 6.39 11.7583 7.26 11.375 7.965C10.9917 8.67 10.525 9.3525 9.975 10.0125C9.44167 10.6725 8.87917 11.3625 8.2875 12.0825C7.69583 12.8025 7.20833 13.695 6.825 14.76C6.75833 14.925 6.65 15.0563 6.5 15.1538C6.35 15.2513 6.18333 15.3 6 15.3ZM6 7.2675C6.58333 7.2675 7.08333 7.08 7.5 6.705C7.91667 6.33 8.125 5.88 8.125 5.355C8.125 4.83 7.91667 4.38 7.5 4.005C7.08333 3.63 6.58333 3.4425 6 3.4425C5.41667 3.4425 4.91667 3.63 4.5 4.005C4.08333 4.38 3.875 4.83 3.875 5.355C3.875 5.88 4.08333 6.33 4.5 6.705C4.91667 7.08 5.41667 7.2675 6 7.2675Z" fill="#F87321"/>
</svg>
