<svg width="26" height="21" viewBox="0 0 26 21" fill="none" xmlns="http://www.w3.org/2000/svg">
<path d="M20.8 11.8125V9.1875H26V11.8125H20.8ZM22.36 21L18.2 17.85L19.76 15.75L23.92 18.9L22.36 21ZM19.76 5.25L18.2 3.15L22.36 0L23.92 2.1L19.76 5.25ZM3.9 19.6875V14.4375H2.6C1.885 14.4375 1.27292 14.1805 0.76375 13.6664C0.254583 13.1523 0 12.5344 0 11.8125V9.1875C0 8.46562 0.254583 7.84766 0.76375 7.33359C1.27292 6.81953 1.885 6.5625 2.6 6.5625H7.8L14.3 2.625V18.375L7.8 14.4375H6.5V19.6875H3.9ZM15.6 14.8969V6.10312C16.185 6.62812 16.6562 7.26797 17.0138 8.02266C17.3713 8.77734 17.55 9.60312 17.55 10.5C17.55 11.3969 17.3713 12.2227 17.0138 12.9773C16.6562 13.732 16.185 14.3719 15.6 14.8969ZM2.6 9.1875V11.8125H8.515L11.7 13.7156V7.28437L8.515 9.1875H2.6Z" fill="#808080"/>
</svg>
