<svg width="35" height="31" viewBox="0 0 35 31" fill="none" xmlns="http://www.w3.org/2000/svg">
<path d="M6.00005 13.6945C5.9945 15.8209 6.49132 17.9186 7.45004 19.8167C8.58679 22.0912 10.3343 24.0042 12.4969 25.3416C14.6595 26.679 17.1517 27.3879 19.6945 27.3889C21.8209 27.3944 23.9186 26.8976 25.8167 25.9389L35 29L31.9389 19.8167C32.8976 17.9186 33.3944 15.8209 33.3889 13.6945C33.3879 11.1517 32.679 8.65951 31.3416 6.49692C30.0042 4.33433 28.0912 2.58679 25.8167 1.45004C23.9186 0.491323 21.8209 -0.00549833 19.6945 4.58974e-05H18.8889C15.5308 0.18531 12.359 1.60271 9.98087 3.98087C7.60272 6.35902 6.18531 9.5308 6.00005 12.8889V13.6945Z" fill="#391D1D"/>
<path d="M23 19.5C23 25.8513 17.8513 31 11.5 31C5.14873 31 0 25.8513 0 19.5C0 13.1487 5.14873 8 11.5 8C17.8513 8 23 13.1487 23 19.5Z" fill="white"/>
<path d="M20 19.5C20.0034 20.8199 19.6951 22.1219 19.1 23.3C18.3944 24.7118 17.3098 25.8992 15.9674 26.7293C14.6251 27.5594 13.0782 27.9994 11.5 28C10.1801 28.0035 8.87812 27.6951 7.7 27.1L2 29L3.9 23.3C3.30493 22.1219 2.99656 20.8199 3 19.5C3.00061 17.9218 3.44061 16.3749 4.27072 15.0326C5.10083 13.6903 6.28825 12.6056 7.7 11.9C8.87812 11.305 10.1801 10.9966 11.5 11H12C14.0843 11.115 16.053 11.9948 17.5291 13.4709C19.0052 14.947 19.885 16.9157 20 19V19.5Z" stroke="#391D1D" stroke-width="2" stroke-linecap="round" stroke-linejoin="round"/>
</svg>
