<svg width="17" height="18" viewBox="0 0 17 18" fill="none" xmlns="http://www.w3.org/2000/svg">
<path d="M1.11855 17.6662C0.793788 17.7481 0.511559 17.6621 0.271857 17.4082C0.0321551 17.1543 -0.0490342 16.8553 0.028289 16.5113L0.956167 11.8184L5.54916 16.6833L1.11855 17.6662ZM5.54916 16.6833L0.956167 11.8184L11.5804 0.56512C11.9361 0.188374 12.3768 0 12.9026 0C13.4284 0 13.8691 0.188374 14.2248 0.56512L16.1734 2.62904C16.5291 3.00579 16.7069 3.47262 16.7069 4.02955C16.7069 4.58648 16.5291 5.05332 16.1734 5.43007L5.54916 16.6833ZM12.9026 1.94107L3.29906 12.1132L5.2708 14.2017L14.8743 4.02955L12.9026 1.94107Z" fill="#808080"/>
</svg>
