<svg width="45" height="46" viewBox="0 0 45 46" fill="none" xmlns="http://www.w3.org/2000/svg">
<path d="M22.5 45.2812C34.9264 45.2812 45 35.1447 45 22.6406C45 10.1366 34.9264 0 22.5 0C10.0736 0 0 10.1366 0 22.6406C0 35.1447 10.0736 45.2812 22.5 45.2812Z" fill="#5BA0F5"/>
<path d="M19.8721 45.1309C20.3291 45.1839 20.7861 45.2282 21.2432 45.2458C21.6562 45.2724 22.0781 45.2812 22.5 45.2812H22.7285C26.3232 45.2458 29.7246 44.3614 32.7305 42.8137C32.748 42.8049 32.7656 42.7961 32.792 42.7872C33.7324 42.3008 34.6289 41.7525 35.4814 41.1422C35.5166 41.1157 35.5518 41.0892 35.5869 41.0715C36.1846 40.647 36.7559 40.1871 37.3008 39.7007C37.3096 39.6918 37.3184 39.6918 37.3271 39.683C38.1006 39.002 38.8301 38.2591 39.5156 37.472C39.375 37.1978 39.2871 36.8971 39.2432 36.5787L38.9971 34.8453C38.8564 33.8548 38.2061 33.0323 37.3096 32.6608C37.1689 32.5989 37.0195 32.5547 36.8701 32.5193L33.3457 31.7145L32.0625 31.4227L30.8145 31.1397L30.7705 31.1308L29.9443 30.9451L24.8291 29.7865L23.3262 29.0171L23.2734 28.9906L21.4189 28.0354L18.1055 26.3374C17.3057 25.9306 16.7432 25.1611 16.5762 24.2767L16.0137 21.2963L15.293 17.4403L14.7217 14.4157L14.5898 13.717V13.6993L13.9219 10.1617V10.144L13.4473 6.77447C13.3506 6.11117 13.0254 5.50978 12.5244 5.06758L10.626 3.39606C8.88574 4.48388 7.3125 5.80163 5.93262 7.31395C5.48438 7.80922 5.0625 8.32217 4.6582 8.84396C4.36816 9.40114 4.14844 9.85218 4.04297 10.1175C3.51562 11.5768 0.694336 26.2313 0.694336 26.2313L1.125 29.7423C3.15527 35.9331 7.76953 40.9477 13.6846 43.477C13.7021 43.4859 13.7197 43.4947 13.7461 43.5036C14.6162 43.875 15.5127 44.1934 16.4355 44.4499C17.042 44.6179 17.6572 44.7683 18.2812 44.8832C18.791 44.9805 19.3096 45.0601 19.8281 45.122L19.8721 45.1309Z" fill="#6F4232"/>
<path d="M19.8721 45.1309C20.3291 45.184 20.7861 45.2282 21.2432 45.2459C21.6562 45.2724 22.0781 45.2812 22.5 45.2812H22.7285C26.3232 45.2459 29.7246 44.3615 32.7305 42.8138C32.748 42.8049 32.7656 42.7961 32.792 42.7872C33.7324 42.3008 34.6289 41.7525 35.4814 41.1423C35.5166 41.1157 35.5518 41.0892 35.5869 41.0715L35.4814 40.9742L32.792 38.5421L32.7305 38.4891L32.5723 38.3475C32.0625 37.8877 31.7373 37.2686 31.6406 36.5876L31.3945 34.8542C31.3682 34.6773 31.333 34.5093 31.2715 34.3501C31.1309 33.9344 30.9023 33.5718 30.6035 33.2711C30.3311 32.9969 29.9971 32.7847 29.6279 32.6432C29.6103 32.6343 29.6016 32.6343 29.584 32.6255C29.4785 32.5901 29.373 32.5547 29.2588 32.5282L28.8984 32.4486L21.2432 30.7063L17.209 29.7954L17.2002 29.7866L15.4072 28.8668L15.3721 28.8491L10.5029 26.3551C9.70312 25.9483 9.13183 25.1788 8.96484 24.2944L6.33691 10.1617L5.93262 7.32281C5.48437 7.80923 5.0625 8.32219 4.6582 8.84398C1.74023 12.6646 0 17.4492 0 22.6406C0 25.1169 0.395508 27.5048 1.125 29.7423C3.15527 35.9331 7.76953 40.9477 13.6846 43.4771C13.7021 43.4859 13.7197 43.4948 13.7461 43.5036C14.6162 43.875 15.5127 44.1934 16.4355 44.4499C17.042 44.6179 17.6572 44.7683 18.2812 44.8833C18.791 44.9805 19.3096 45.0601 19.8281 45.1221L19.8721 45.1309Z" fill="#613A2E"/>
<path d="M26.1738 29.7777H24.8379C23.7656 29.7777 22.9043 28.9022 22.9043 27.832V24.6305C22.9043 23.5515 23.7744 22.6848 24.8379 22.6848H26.1738C27.2461 22.6848 28.1074 23.5604 28.1074 24.6305V27.832C28.1074 28.911 27.2461 29.7777 26.1738 29.7777Z" fill="#D3A971"/>
<path d="M26.4199 29.76C26.332 29.7777 26.2353 29.7777 26.1387 29.7777H24.8027C23.7305 29.7777 22.8691 28.9022 22.8691 27.832V24.6305C22.8691 23.5515 23.7393 22.6848 24.8027 22.6848H26.1387C26.2353 22.6848 26.3232 22.6937 26.4199 22.7025C25.4883 22.8352 24.7676 23.6488 24.7676 24.6305V27.832C24.7676 28.8137 25.4795 29.6274 26.4199 29.76Z" fill="#C79A5B"/>
<path d="M19.8721 45.1309C20.3291 45.184 20.7861 45.2282 21.2432 45.2459C21.6562 45.2724 22.0781 45.2812 22.5 45.2812H22.7285C26.3232 45.2459 29.7246 44.3615 32.7305 42.8138C32.748 42.8049 32.7656 42.7961 32.792 42.7872C33.7324 42.3008 34.6289 41.7525 35.4814 41.1423C35.5166 41.1157 35.5518 41.0892 35.5869 41.0715C36.1846 40.647 36.7559 40.1871 37.3008 39.7007V37.2509V32.6609V32.2098C37.3008 30.7948 36.5977 29.5478 35.5254 28.7872C35.2178 28.5661 34.875 28.3892 34.5059 28.2654C34.1016 28.1239 33.6621 28.0443 33.2139 28.0443C33.1963 28.0443 33.1787 28.0443 33.1611 28.0443H30.2959H28.0986H24.7764H22.9219H22.8867H21.4189H20.9707H20.5752H17.8857H17.8242C17.8154 28.0443 17.8066 28.0443 17.7979 28.0443C17.7715 28.0443 17.7451 28.0443 17.71 28.0443C16.8398 28.062 16.04 28.3627 15.3809 28.8403C14.3525 29.6008 13.6758 30.8213 13.6758 32.2098V37.242V43.4771C13.6934 43.4859 13.7109 43.4948 13.7373 43.5036C14.6074 43.875 15.5039 44.1934 16.4268 44.4499C17.0332 44.6179 17.6484 44.7683 18.2725 44.8833C18.7822 44.9805 19.3008 45.0601 19.8193 45.122L19.8721 45.1309Z" fill="#233E76"/>
<path d="M20.5752 28.0443C19.1865 28.0443 17.9648 28.7253 17.209 29.7777C16.7168 30.4587 16.4268 31.2989 16.4268 32.2098V44.4499C15.5039 44.1934 14.6074 43.875 13.7373 43.5036V32.2098C13.7373 30.839 14.3965 29.6185 15.416 28.8579C16.1016 28.345 16.9541 28.0443 17.877 28.0443H20.5752Z" fill="#1B305C"/>
<path d="M25.6289 33.784C23.0537 33.784 20.9707 31.688 20.9707 29.0967V28.0443H30.2959V29.0967C30.2959 31.6792 28.2041 33.784 25.6289 33.784Z" fill="#D3A971"/>
<path d="M35.1562 13.6993H34.9365V12.2224C34.9365 6.97789 30.709 2.72393 25.4971 2.72393C20.2852 2.72393 16.0576 6.97789 16.0576 12.2224V16.5117C16.0576 21.7562 20.2852 26.0102 25.4971 26.0102C30.3486 26.0102 34.3477 22.3222 34.875 17.5818H35.1475C35.8682 17.5818 36.4482 16.9981 36.4482 16.2729V15.0171C36.4658 14.2919 35.877 13.6993 35.1562 13.6993Z" fill="#D3A971"/>
<path d="M19.4326 16.5117V12.2224C19.4326 7.55275 22.7812 3.67024 27.1846 2.87428C26.6396 2.77699 26.0771 2.72393 25.4971 2.72393C20.2852 2.72393 16.0576 6.97789 16.0576 12.2224V13.6993H15.8818C15.1611 13.6993 14.5811 14.283 14.5811 15.0082V16.2729C14.5811 16.9981 15.1611 17.5818 15.8818 17.5818H16.1191C16.6465 22.3222 20.6455 26.0102 25.4971 26.0102C26.0684 26.0102 26.6396 25.9571 27.1846 25.8598C22.7725 25.0639 19.4326 21.1813 19.4326 16.5117Z" fill="#C79A5B"/>
<path d="M20.8828 16.3172C21.6012 16.3172 22.1836 15.7311 22.1836 15.0083C22.1836 14.2854 21.6012 13.6993 20.8828 13.6993C20.1644 13.6993 19.582 14.2854 19.582 15.0083C19.582 15.7311 20.1644 16.3172 20.8828 16.3172Z" fill="#1B305C"/>
<path d="M21.208 15.1586C21.5235 15.1586 21.7793 14.9012 21.7793 14.5837C21.7793 14.2662 21.5235 14.0089 21.208 14.0089C20.8925 14.0089 20.6367 14.2662 20.6367 14.5837C20.6367 14.9012 20.8925 15.1586 21.208 15.1586Z" fill="white"/>
<path d="M29.9619 16.3172C30.6803 16.3172 31.2627 15.7311 31.2627 15.0083C31.2627 14.2854 30.6803 13.6993 29.9619 13.6993C29.2435 13.6993 28.6611 14.2854 28.6611 15.0083C28.6611 15.7311 29.2435 16.3172 29.9619 16.3172Z" fill="#1B305C"/>
<path d="M30.2959 15.1586C30.6114 15.1586 30.8672 14.9012 30.8672 14.5837C30.8672 14.2662 30.6114 14.0089 30.2959 14.0089C29.9804 14.0089 29.7246 14.2662 29.7246 14.5837C29.7246 14.9012 29.9804 15.1586 30.2959 15.1586Z" fill="white"/>
<path d="M26.0859 17.9975H24.917C24.5303 17.9975 24.2227 17.6792 24.2227 17.2989C24.2227 16.9097 24.5391 16.6002 24.917 16.6002H26.0859C26.4727 16.6002 26.7803 16.9186 26.7803 17.2989C26.7803 17.688 26.4727 17.9975 26.0859 17.9975Z" fill="#C79A5B"/>
<path d="M24.3896 20.1908C25.0049 20.8099 25.998 20.8099 26.6133 20.1908" stroke="#B18653" stroke-width="1.99699" stroke-miterlimit="10" stroke-linecap="round"/>
<path d="M24.6973 22.1365H26.3145" stroke="#B18653" stroke-width="1.99699" stroke-miterlimit="10" stroke-linecap="round"/>
<path d="M37.0195 10.1529H36.3779C35.7627 5.35062 31.6846 1.63614 26.7451 1.63614H24.293C19.3535 1.63614 15.2754 5.35062 14.6602 10.1529H13.9219C13.6055 10.1529 13.3594 10.4094 13.3594 10.7189V11.9217V13.0626C13.3594 13.4163 13.6406 13.6993 13.9922 13.6993H16.0664V11.9748H34.8926V13.6993H36.9668C37.3184 13.6993 37.5996 13.4163 37.5996 13.0626V11.9217V10.7189C37.5908 10.4005 37.3359 10.1529 37.0195 10.1529Z" fill="#DA4545"/>
<path d="M28.1865 1.75993C24.1436 2.36132 20.9092 5.47441 20.1094 9.48073C20.0303 9.88756 19.6699 10.1706 19.2568 10.1706C18.9404 10.1706 18.6943 10.427 18.6943 10.7366V11.9924H16.0576V13.717H13.9834C13.6318 13.717 13.3506 13.434 13.3506 13.0802V10.7366C13.3506 10.4182 13.6055 10.1706 13.9131 10.1706H14.6514C15.2666 5.36828 19.3447 1.6538 24.293 1.6538H26.7451C27.2373 1.64496 27.7207 1.68033 28.1865 1.75993Z" fill="#B13B3B"/>
<path d="M21.208 8.36639C22.0866 8.36639 22.7988 7.6497 22.7988 6.76563C22.7988 5.88155 22.0866 5.16486 21.208 5.16486C20.3294 5.16486 19.6172 5.88155 19.6172 6.76563C19.6172 7.6497 20.3294 8.36639 21.208 8.36639Z" fill="#192B49"/>
<path d="M21.6738 8.29567C21.5244 8.34873 21.3574 8.37526 21.1904 8.37526C20.3115 8.37526 19.5996 7.6589 19.5996 6.7745C19.5996 5.8901 20.3115 5.17374 21.1904 5.17374C21.3574 5.17374 21.5244 5.20027 21.6738 5.25333C21.0322 5.45674 20.5664 6.06698 20.5664 6.78334C20.5664 7.48202 21.0322 8.08341 21.6738 8.29567Z" fill="#16263A"/>
<path d="M29.9707 8.36639C30.8493 8.36639 31.5615 7.6497 31.5615 6.76563C31.5615 5.88155 30.8493 5.16486 29.9707 5.16486C29.0921 5.16486 28.3799 5.88155 28.3799 6.76563C28.3799 7.6497 29.0921 8.36639 29.9707 8.36639Z" fill="#192B49"/>
<path d="M30.4365 8.29567C30.2871 8.34873 30.1201 8.37526 29.9531 8.37526C29.0742 8.37526 28.3623 7.6589 28.3623 6.7745C28.3623 5.8901 29.0742 5.17374 29.9531 5.17374C30.1201 5.17374 30.2871 5.20027 30.4365 5.25333C29.7949 5.45674 29.3291 6.06698 29.3291 6.78334C29.3291 7.48202 29.7949 8.08341 30.4365 8.29567Z" fill="#16263A"/>
<path d="M36.4658 13.717V16.158C36.4658 21.6059 32.0801 26.019 26.666 26.019H24.3721C18.958 26.019 14.5723 21.6059 14.5723 16.158V13.717" stroke="#16263A" stroke-width="1.99699" stroke-miterlimit="10"/>
<path d="M30.0498 11.9748C29.3818 12.3727 29.0742 13.1068 27.5713 13.381C27.3515 13.4163 27.1846 13.1864 27.2812 12.9918L27.4219 12.7088C27.501 12.5496 27.3428 12.3816 27.1758 12.4435C26.5869 12.6823 25.541 13.0626 24.6709 13.1156C24.4863 13.1245 24.3369 12.9476 24.3896 12.7619C24.4336 12.5938 24.2578 12.4612 24.1084 12.5408C23.6162 12.8326 22.6846 13.2041 21.2256 13.1245C21.0762 13.1156 20.9619 12.9918 20.9707 12.8503L20.9883 11.9305L30.0498 11.9748Z" fill="#6F4232"/>
<path d="M35.5254 28.7872C35.4902 28.9022 35.4287 29.0171 35.3496 29.1233L33.3281 31.7146L31.2803 34.3412L22.7373 45.2812C22.6582 45.2812 22.5791 45.2812 22.5 45.2812C22.0781 45.2812 21.665 45.2724 21.2432 45.2459C20.7773 45.2193 20.3203 45.184 19.8721 45.1309L29.6367 32.6343L30.7969 31.1485L33.2139 28.0531L33.5039 27.6817C33.6797 27.4606 33.917 27.3279 34.1719 27.2926C34.4443 27.2483 34.7344 27.3191 34.9629 27.5048L35.1738 27.6728C35.5254 27.9293 35.6484 28.3892 35.5254 28.7872Z" fill="#E39123"/>
<path d="M19.8721 45.1308C20.3291 45.1839 20.7861 45.2281 21.2432 45.2458L30.6035 33.2622L32.0361 31.4227L34.5059 28.2653L35.0244 27.602L34.9014 27.5048C34.6904 27.3367 34.4268 27.266 34.1719 27.2837C33.8994 27.3102 33.627 27.4429 33.4424 27.6816L33.1611 28.0442L30.7441 31.1308L29.584 32.6166L19.8193 45.122L19.8721 45.1308Z" fill="#C87D20"/>
<path d="M18.2725 37.2421V44.8833C17.6484 44.7683 17.0332 44.618 16.4268 44.4499C15.5039 44.1934 14.6074 43.8751 13.7373 43.5036C13.7197 43.4948 13.6934 43.4859 13.6758 43.4771V37.2421H18.2725Z" fill="#D3A971"/>
<path d="M16.4355 37.2421V44.4499C15.5127 44.1934 14.6162 43.8751 13.7461 43.5036V37.2421H16.4355Z" fill="#C79A5B"/>
<path d="M37.3184 37.2421V39.6742C37.3096 39.683 37.3008 39.6919 37.292 39.6919C36.7471 40.1783 36.167 40.6293 35.5781 41.0627C35.543 41.0892 35.5078 41.1157 35.4727 41.1334C34.6201 41.7437 33.7236 42.292 32.7832 42.7784C32.7656 42.7873 32.748 42.7961 32.7217 42.8049V37.2421H37.3184Z" fill="#D3A971"/>
<path d="M35.4814 37.2421V41.1334C34.6289 41.7437 33.7324 42.292 32.792 42.7784V37.2421H35.4814Z" fill="#C79A5B"/>
</svg>
