<svg width="20" height="21" viewBox="0 0 20 21" fill="none" xmlns="http://www.w3.org/2000/svg">
<path d="M4 17C3.71667 17 3.47917 16.9042 3.2875 16.7125C3.09583 16.5208 3 16.2833 3 16C3 15.7167 3.09583 15.4792 3.2875 15.2875C3.47917 15.0958 3.71667 15 4 15C4.28333 15 4.52083 15.0958 4.7125 15.2875C4.90417 15.4792 5 15.7167 5 16C5 16.2833 4.90417 16.5208 4.7125 16.7125C4.52083 16.9042 4.28333 17 4 17ZM16 17C15.7167 17 15.4792 16.9042 15.2875 16.7125C15.0958 16.5208 15 16.2833 15 16C15 15.7167 15.0958 15.4792 15.2875 15.2875C15.4792 15.0958 15.7167 15 16 15C16.2833 15 16.5208 15.0958 16.7125 15.2875C16.9042 15.4792 17 15.7167 17 16C17 16.2833 16.9042 16.5208 16.7125 16.7125C16.5208 16.9042 16.2833 17 16 17ZM7 21C6.71667 21 6.47917 20.9042 6.2875 20.7125C6.09583 20.5208 6 20.2833 6 20C6 19.7167 6.09583 19.4792 6.2875 19.2875C6.47917 19.0958 6.71667 19 7 19C7.28333 19 7.52083 19.0958 7.7125 19.2875C7.90417 19.4792 8 19.7167 8 20C8 20.2833 7.90417 20.5208 7.7125 20.7125C7.52083 20.9042 7.28333 21 7 21ZM10 17C9.71667 17 9.47917 16.9042 9.2875 16.7125C9.09583 16.5208 9 16.2833 9 16C9 15.7167 9.09583 15.4792 9.2875 15.2875C9.47917 15.0958 9.71667 15 10 15C10.2833 15 10.5208 15.0958 10.7125 15.2875C10.9042 15.4792 11 15.7167 11 16C11 16.2833 10.9042 16.5208 10.7125 16.7125C10.5208 16.9042 10.2833 17 10 17ZM13 21C12.7167 21 12.4792 20.9042 12.2875 20.7125C12.0958 20.5208 12 20.2833 12 20C12 19.7167 12.0958 19.4792 12.2875 19.2875C12.4792 19.0958 12.7167 19 13 19C13.2833 19 13.5208 19.0958 13.7125 19.2875C13.9042 19.4792 14 19.7167 14 20C14 20.2833 13.9042 20.5208 13.7125 20.7125C13.5208 20.9042 13.2833 21 13 21ZM5.5 14C3.98333 14 2.6875 13.4625 1.6125 12.3875C0.5375 11.3125 0 10.0167 0 8.5C0 7.11667 0.458333 5.90833 1.375 4.875C2.29167 3.84167 3.425 3.23333 4.775 3.05C5.30833 2.1 6.0375 1.35417 6.9625 0.8125C7.8875 0.270833 8.9 0 10 0C11.5 0 12.8042 0.479167 13.9125 1.4375C15.0208 2.39583 15.6917 3.59167 15.925 5.025C17.075 5.125 18.0417 5.6 18.825 6.45C19.6083 7.3 20 8.31667 20 9.5C20 10.75 19.5625 11.8125 18.6875 12.6875C17.8125 13.5625 16.75 14 15.5 14H5.5ZM5.5 12H15.5C16.2 12 16.7917 11.7583 17.275 11.275C17.7583 10.7917 18 10.2 18 9.5C18 8.8 17.7583 8.20833 17.275 7.725C16.7917 7.24167 16.2 7 15.5 7H14V6C14 4.9 13.6083 3.95833 12.825 3.175C12.0417 2.39167 11.1 2 10 2C9.2 2 8.47083 2.21667 7.8125 2.65C7.15417 3.08333 6.65833 3.66667 6.325 4.4L6.075 5H5.45C4.5 5.03333 3.6875 5.3875 3.0125 6.0625C2.3375 6.7375 2 7.55 2 8.5C2 9.46667 2.34167 10.2917 3.025 10.975C3.70833 11.6583 4.53333 12 5.5 12Z" fill="black"/>
</svg>
