<svg width="17" height="19" viewBox="0 0 17 19" fill="none" xmlns="http://www.w3.org/2000/svg">
<path d="M1 4.23233H2.61616H15.5455" stroke="#808080" stroke-width="2" stroke-linecap="round" stroke-linejoin="round"/>
<path d="M13.9293 4.23232V15.5455C13.9293 15.9741 13.7591 16.3852 13.456 16.6883C13.1529 16.9913 12.7418 17.1616 12.3132 17.1616H4.23237C3.80374 17.1616 3.39266 16.9913 3.08957 16.6883C2.78648 16.3852 2.61621 15.9741 2.61621 15.5455V4.23232M5.04045 4.23232V2.61616C5.04045 2.18753 5.21073 1.77645 5.51382 1.47336C5.81691 1.17027 6.22798 1 6.65661 1H9.88894C10.3176 1 10.7286 1.17027 11.0317 1.47336C11.3348 1.77645 11.5051 2.18753 11.5051 2.61616V4.23232" stroke="#808080" stroke-width="2" stroke-linecap="round" stroke-linejoin="round"/>
<path d="M6.65649 8.27272V13.1212" stroke="#808080" stroke-width="2" stroke-linecap="round" stroke-linejoin="round"/>
<path d="M9.88892 8.27272V13.1212" stroke="#808080" stroke-width="2" stroke-linecap="round" stroke-linejoin="round"/>
</svg>
