<svg width="20" height="22" viewBox="0 0 20 22" fill="none" xmlns="http://www.w3.org/2000/svg">
<path d="M9.55 22L11.9 19.325L9.9 18.325L12.8 15H15.45L13.1 17.675L15.1 18.675L12.2 22H9.55ZM3.55 22L5.9 19.325L3.9 18.325L6.8 15H9.45L7.1 17.675L9.1 18.675L6.2 22H3.55ZM5.5 14C3.98333 14 2.6875 13.4625 1.6125 12.3875C0.5375 11.3125 0 10.0167 0 8.5C0 7.11667 0.458333 5.90833 1.375 4.875C2.29167 3.84167 3.425 3.23333 4.775 3.05C5.30833 2.1 6.0375 1.35417 6.9625 0.8125C7.8875 0.270833 8.9 0 10 0C11.5 0 12.8042 0.479167 13.9125 1.4375C15.0208 2.39583 15.6917 3.59167 15.925 5.025C17.075 5.125 18.0417 5.6 18.825 6.45C19.6083 7.3 20 8.31667 20 9.5C20 10.75 19.5625 11.8125 18.6875 12.6875C17.8125 13.5625 16.75 14 15.5 14H5.5ZM5.5 12H15.5C16.2 12 16.7917 11.7583 17.275 11.275C17.7583 10.7917 18 10.2 18 9.5C18 8.8 17.7583 8.20833 17.275 7.725C16.7917 7.24167 16.2 7 15.5 7H14V6C14 4.9 13.6083 3.95833 12.825 3.175C12.0417 2.39167 11.1 2 10 2C9.2 2 8.47083 2.21667 7.8125 2.65C7.15417 3.08333 6.65833 3.66667 6.325 4.4L6.075 5H5.45C4.5 5.03333 3.6875 5.3875 3.0125 6.0625C2.3375 6.7375 2 7.55 2 8.5C2 9.46667 2.34167 10.2917 3.025 10.975C3.70833 11.6583 4.53333 12 5.5 12Z" fill="black"/>
</svg>
